<?xml version="1.0" encoding="UTF-8" standalone="no"?><!DOCTYPE svg PUBLIC "-//W3C//DTD SVG 1.1//EN" "http://www.w3.org/Graphics/SVG/1.1/DTD/svg11.dtd"><svg width="100%" height="100%" viewBox="0 0 2500 2500" version="1.1" xmlns="http://www.w3.org/2000/svg" xmlns:xlink="http://www.w3.org/1999/xlink" xml:space="preserve" xmlns:serif="http://www.serif.com/" style="fill-rule:evenodd;clip-rule:evenodd;stroke-linejoin:round;stroke-miterlimit:2;"><g><path d="M1021.06,1351.11l-565.5,0l-0,-1184.44l288.888,-0l0,953.333l178.389,-0l98.223,231.111Z" style="fill-rule:nonzero;"/><path d="M802.222,166.667l474.614,-0c155.265,-0 278.05,12.147 358.851,51.199c80.801,39.052 145.362,108.01 193.685,206.875c48.322,98.865 72.483,208.111 72.483,327.738c-0,154.23 -40.005,284.238 -120.013,390.023c-80.009,105.786 -203.587,173.014 -370.734,201.685c60.997,36.58 107.339,72.666 139.025,108.258c67.334,77.115 131.104,173.508 191.308,289.18l303.003,591.708l-289.932,0l-230.52,-452.308c-67.334,-130.502 -122.786,-230.356 -166.355,-299.561c-43.569,-69.206 -82.583,-117.65 -117.042,-145.332c-34.46,-27.682 -89.526,-85.021 -148.939,-85.021l-115.737,-231.111l259.328,-1.225c105.358,-0 187.744,-13.594 247.156,-40.782c59.412,-27.188 104.566,-70.689 135.46,-130.502c30.895,-59.814 46.342,-124.817 46.342,-195.012c0,-102.82 -29.904,-187.349 -89.713,-253.589c-59.808,-66.24 -168.533,-99.359 -297.656,-99.359l-474.614,-1.753l0,-231.111Z" style="fill:#22a094;fill-rule:nonzero;"/></g></svg>