<svg width="100" height="100" viewBox="0 0 100 100" fill="#F9F6F0" xmlns="http://www.w3.org/2000/svg">
<rect x="2.5" y="2.5" width="95" height="95" stroke="#22A094" stroke-width="5"/>
<path d="M37.9314 41.05V46.5H16.0314V11.85H22.3314V41.05H37.9314Z" fill="#22A094"/>
<path d="M58.6123 29.15C58.6123 31.05 58.8456 32.7833 59.3123 34.35C59.7789 35.8833 60.4456 37.2 61.3123 38.3C62.2123 39.3667 63.2956 40.2 64.5623 40.8C65.8289 41.4 67.2623 41.7 68.8623 41.7C70.4289 41.7 71.8456 41.4 73.1123 40.8C74.3789 40.2 75.4456 39.3667 76.3123 38.3C77.2123 37.2 77.8956 35.8833 78.3623 34.35C78.8289 32.7833 79.0623 31.05 79.0623 29.15C79.0623 27.25 78.8289 25.5333 78.3623 24C77.8956 22.4333 77.2123 21.1167 76.3123 20.05C75.4456 18.95 74.3789 18.1 73.1123 17.5C71.8456 16.9 70.4289 16.6 68.8623 16.6C67.2623 16.6 65.8289 16.9 64.5623 17.5C63.2956 18.1 62.2123 18.95 61.3123 20.05C60.4456 21.15 59.7789 22.4667 59.3123 24C58.8456 25.5333 58.6123 27.25 58.6123 29.15ZM85.6623 29.15C85.6623 32.1167 85.2123 34.7333 84.3123 37C83.4456 39.2667 82.2456 41.1667 80.7123 42.7C79.2123 44.2 77.4456 45.3333 75.4123 46.1C73.3789 46.8667 71.2123 47.25 68.9123 47.25C66.6123 47.25 64.4289 46.8667 62.3623 46.1C60.3289 45.3333 58.5456 44.2 57.0123 42.7C55.5123 41.1667 54.3123 39.2667 53.4123 37C52.5123 34.7333 52.0623 32.1167 52.0623 29.15C52.0623 26.1833 52.5123 23.5833 53.4123 21.35C54.3123 19.0833 55.5289 17.1833 57.0623 15.65C58.6289 14.1167 60.4289 12.9667 62.4623 12.2C64.4956 11.4333 66.6456 11.05 68.9123 11.05C71.1789 11.05 73.3289 11.4333 75.3623 12.2C77.3956 12.9667 79.1623 14.1167 80.6623 15.65C82.1956 17.1833 83.4123 19.0833 84.3123 21.35C85.2123 23.5833 85.6623 26.1833 85.6623 29.15Z" fill="#22A094
"/>
<path d="M58.3698 87.8961V53.2461H80.6198V58.5961H64.6698V67.1461H78.8698V72.3961H64.6698V82.5461H81.8198V87.8961H58.3698Z" fill="#22A094"/>
<path d="M25.3031 52.8961C30.3031 52.8961 34.1198 53.8128 36.7531 55.6461C39.4198 57.4794 40.7531 60.2794 40.7531 64.0461C40.7531 68.7461 38.4365 71.9295 33.8031 73.5961C34.4365 74.3628 35.1531 75.2961 35.9531 76.3961C36.7531 77.4961 37.5698 78.6961 38.4031 79.9961C39.2365 81.2628 40.0365 82.5795 40.8031 83.9461C41.5698 85.2795 42.2531 86.5961 42.8531 87.8961H35.8031C35.1698 86.6961 34.4865 85.4961 33.7531 84.2961C33.0198 83.0628 32.2698 81.8795 31.5031 80.7461C30.7698 79.5795 30.0365 78.4961 29.3031 77.4961C28.5698 76.4628 27.8865 75.5461 27.2531 74.7461C26.7865 74.7795 26.3865 74.7961 26.0531 74.7961C25.7198 74.7961 25.4031 74.7961 25.1031 74.7961H22.0531V87.8961H15.7531V53.7461C17.2865 53.4128 18.9198 53.1961 20.6531 53.0961C22.3865 52.9628 23.9365 52.8961 25.3031 52.8961ZM25.7531 58.3461C24.4198 58.3461 23.1865 58.3961 22.0531 58.4961V69.6961H24.8031C26.3365 69.6961 27.6865 69.6128 28.8531 69.4461C30.0198 69.2795 30.9865 68.9795 31.7531 68.5461C32.5531 68.1128 33.1531 67.5295 33.5531 66.7961C33.9531 66.0628 34.1531 65.1295 34.1531 63.9961C34.1531 62.9294 33.9531 62.0294 33.5531 61.2961C33.1531 60.5628 32.5698 59.9795 31.8031 59.5461C31.0698 59.1128 30.1865 58.8128 29.1531 58.6461C28.1198 58.4461 26.9865 58.3461 25.7531 58.3461Z" fill="#22A094"/>
</svg>
